<svg id="flash_cloud" xmlns="http://www.w3.org/2000/svg" width="28.609" height="24.129" viewBox="0 0 28.609 24.129">
  <path id="Path_35" data-name="Path 35" d="M24.611,48.142a8.529,8.529,0,0,0-15.944-3.66A6.536,6.536,0,1,0,6.536,57.2h3.629l-.176.242a.559.559,0,0,0,.452.888h3.147l-1.911,5.187a.559.559,0,0,0,.976.522l4.98-6.839h2.82a.559.559,0,1,0,0-1.118H18.447l.177-.242a.559.559,0,0,0-.452-.888h-3.16l1.923-5.186a.559.559,0,0,0-.976-.523l-4.98,6.839H6.536c-7.121-.129-7.12-10.709,0-10.836a5.441,5.441,0,0,1,5.106,3.612.559.559,0,0,0,1.054-.372,6.566,6.566,0,0,0-3-3.542,7.412,7.412,0,0,1,13.8,3.207,4.52,4.52,0,0,0-1.887.689.559.559,0,0,0,.607.939c4.647-2.655,7.741,4.8,2.593,6.226a.559.559,0,1,0,.239,1.092,4.544,4.544,0,0,0-.432-8.95ZM14.48,53.17l-.8,2.143a.559.559,0,0,0,.524.753h2.864l-2.959,4.063.8-2.168a.559.559,0,0,0-.524-.752H11.539Z" transform="translate(-0.009 -40.138)" fill="#bdbce1"/>
  <circle id="Ellipse_23" data-name="Ellipse 23" cx="0.559" cy="0.559" r="0.559" transform="translate(22.121 15.941)" fill="#bdbce1"/>
  <path id="Path_36" data-name="Path 36" d="M77.736,365.629a.559.559,0,0,0-.958,0l-.977,1.627a1.7,1.7,0,1,0,2.912,0Zm.026,2.787a.581.581,0,1,1-1-.585l.5-.829.5.829a.57.57,0,0,1,0,.585Z" transform="translate(-71.342 -347.182)" fill="#bdbce1"/>
  <path id="Path_37" data-name="Path 37" d="M377.737,365.629a.559.559,0,0,0-.958,0l-.977,1.627a1.7,1.7,0,1,0,2.912,0Zm.026,2.787a.581.581,0,1,1-1-.585l.5-.829.5.829a.57.57,0,0,1,0,.585Z" transform="translate(-354.578 -347.182)" fill="#bdbce1"/>
</svg>
