<svg id="settings" xmlns="http://www.w3.org/2000/svg" width="23.37" height="23.367" viewBox="0 0 23.37 23.367">
  <path id="Path_96" data-name="Path 96" d="M12.417,23.367H10.95A2.154,2.154,0,0,1,8.8,21.216v-.5a9.433,9.433,0,0,1-1.465-.608l-.352.352a2.151,2.151,0,0,1-3.042,0L2.9,19.426a2.151,2.151,0,0,1,0-3.042l.351-.351a9.434,9.434,0,0,1-.608-1.465h-.5A2.154,2.154,0,0,1,0,12.417V10.95A2.154,2.154,0,0,1,2.151,8.8h.5a9.436,9.436,0,0,1,.608-1.465L2.9,6.983a2.151,2.151,0,0,1,0-3.042L3.94,2.9a2.151,2.151,0,0,1,3.042,0l.351.351a9.442,9.442,0,0,1,1.467-.6v-.5A2.154,2.154,0,0,1,10.95,0h1.466a2.154,2.154,0,0,1,2.151,2.151v.5a9.433,9.433,0,0,1,1.465.608l.352-.352a2.151,2.151,0,0,1,3.042,0L20.463,3.94a2.151,2.151,0,0,1,0,3.042l-.351.351A9.434,9.434,0,0,1,20.719,8.8h.5a2.154,2.154,0,0,1,2.151,2.151v1.467a2.154,2.154,0,0,1-2.151,2.151h-.5a9.436,9.436,0,0,1-.608,1.465l.352.352a2.151,2.151,0,0,1,0,3.042l-1.037,1.037a2.151,2.151,0,0,1-3.042,0l-.351-.351a9.442,9.442,0,0,1-1.465.608v.5A2.153,2.153,0,0,1,12.417,23.367ZM7.563,18.674a8.069,8.069,0,0,0,2.092.868.685.685,0,0,1,.514.663v1.011A.783.783,0,0,0,10.95,22h1.466a.783.783,0,0,0,.782-.782V20.2a.685.685,0,0,1,.514-.663,8.069,8.069,0,0,0,2.092-.868.685.685,0,0,1,.833.105l.716.716a.782.782,0,0,0,1.106,0L19.5,18.458a.782.782,0,0,0,0-1.106l-.716-.716a.685.685,0,0,1-.1-.833,8.068,8.068,0,0,0,.868-2.092A.685.685,0,0,1,20.2,13.2h1.011A.783.783,0,0,0,22,12.417V10.95a.783.783,0,0,0-.782-.782H20.2a.685.685,0,0,1-.663-.513,8.07,8.07,0,0,0-.868-2.092.685.685,0,0,1,.1-.833l.716-.716a.782.782,0,0,0,0-1.106L18.458,3.872a.782.782,0,0,0-1.106,0l-.716.716a.685.685,0,0,1-.833.105,8.069,8.069,0,0,0-2.092-.868.685.685,0,0,1-.514-.663V2.151a.783.783,0,0,0-.782-.782H10.95a.783.783,0,0,0-.782.782V3.162a.685.685,0,0,1-.514.663,8.069,8.069,0,0,0-2.092.868.685.685,0,0,1-.833-.105l-.716-.716a.782.782,0,0,0-1.106,0L3.872,4.909a.782.782,0,0,0,0,1.106l.716.716a.685.685,0,0,1,.105.833,8.068,8.068,0,0,0-.868,2.092.685.685,0,0,1-.663.513H2.151a.783.783,0,0,0-.782.782v1.467a.783.783,0,0,0,.782.782H3.162a.685.685,0,0,1,.663.513A8.069,8.069,0,0,0,4.693,15.8a.685.685,0,0,1-.1.833l-.716.716a.782.782,0,0,0,0,1.106l1.037,1.037a.782.782,0,0,0,1.106,0l.716-.716a.688.688,0,0,1,.833-.1Z" fill="#2c2c2c"/>
  <path id="Path_97" data-name="Path 97" d="M149.684,154.768a5.084,5.084,0,1,1,5.084-5.084A5.084,5.084,0,0,1,149.684,154.768Zm0-8.8a3.715,3.715,0,1,0,3.715,3.715,3.715,3.715,0,0,0-3.715-3.715Z" transform="translate(-138.001 -138.001)" fill="#2c2c2c"/>
</svg>
