<svg id="location" xmlns="http://www.w3.org/2000/svg" width="20.08" height="22.814" viewBox="0 0 20.08 22.814">
  <g id="Group_78" data-name="Group 78" transform="translate(0 -0.038)">
    <g id="Group_77" data-name="Group 77">
      <path id="Path_98" data-name="Path 98" d="M44.854,15.094c2.431-3.815,2.125-3.339,2.2-3.438a7.365,7.365,0,1,0-11.987.051l2.157,3.384C34.92,15.449,31,16.5,31,18.83c0,.848.553,2.055,3.189,3a21.126,21.126,0,0,0,6.851,1.019c4.82,0,10.04-1.36,10.04-4.016C51.079,16.5,47.164,15.45,44.854,15.094Zm-8.667-4.12-.023-.034a6.024,6.024,0,1,1,9.8-.068c-.064.085.272-.438-4.924,7.716ZM41.04,21.507c-5.265,0-8.7-1.548-8.7-2.677,0-.759,1.766-2.008,5.678-2.494l2.459,3.858a.669.669,0,0,0,1.129,0l2.459-3.858c3.912.487,5.678,1.735,5.678,2.494C49.741,19.95,46.336,21.507,41.04,21.507Z" transform="translate(-31)" fill="#2c2c2c"/>
    </g>
  </g>
  <g id="Group_80" data-name="Group 80" transform="translate(6.693 4.022)">
    <g id="Group_79" data-name="Group 79">
      <path id="Path_99" data-name="Path 99" d="M184.347,91a3.347,3.347,0,1,0,3.347,3.347A3.347,3.347,0,0,0,184.347,91Zm0,5.354a2.008,2.008,0,1,1,2.008-2.008,2.008,2.008,0,0,1-2.008,2.008Z" transform="translate(-181 -91)" fill="#2c2c2c"/>
    </g>
  </g>
</svg>
