<svg id="cloud" xmlns="http://www.w3.org/2000/svg" width="21.326" height="12.71" viewBox="0 0 21.326 12.71">
  <path id="Path_30" data-name="Path 30" d="M18.332,42.851A6.354,6.354,0,0,0,6.456,40.125,4.869,4.869,0,1,0,4.868,49.6h8.467a.416.416,0,0,0,0-.833H4.868a4.037,4.037,0,1,1,1.617-7.731h0a4.054,4.054,0,0,1,2.187,2.353.416.416,0,1,0,.785-.278A4.892,4.892,0,0,0,7.22,40.469,5.521,5.521,0,0,1,17.5,42.858a3.367,3.367,0,0,0-1.405.513.416.416,0,1,0,.452.7,2.552,2.552,0,1,1,1.383,4.7H16.665a.416.416,0,0,0,0,.833h1.264a3.385,3.385,0,0,0,.4-6.747Z" transform="translate(0.004 -36.89)" fill="#836eff"/>
  <circle id="Ellipse_22" data-name="Ellipse 22" cx="0.416" cy="0.416" r="0.416" transform="translate(14.587 11.874)" fill="#836eff"/>
</svg>
