<svg xmlns="http://www.w3.org/2000/svg" width="27.733" height="30.61" viewBox="0 0 27.733 30.61">
  <g id="rainy" transform="translate(0 0)">
    <path id="Path_50" data-name="Path 50" d="M45.8,71.382a7.674,7.674,0,0,0-.406-1.974,5.609,5.609,0,1,0-8.8-5.047A7.721,7.721,0,0,0,31.4,68.077a5.944,5.944,0,1,0-1.863,11.588H39.8a.6.6,0,0,0,0-1.193H29.541c-6.243-.113-6.242-9.389,0-9.5a4.771,4.771,0,0,1,4.477,3.167.6.6,0,0,0,1.125-.4A5.971,5.971,0,0,0,32.5,68.568a6.533,6.533,0,0,1,12.106,2.821,4.14,4.14,0,0,0-1.637.618.6.6,0,1,0,.648,1c5-2.487,6.63,5.85.955,5.463a.6.6,0,1,0,0,1.193h.654a4.161,4.161,0,0,0,.577-8.282Zm-7.7-7.169q-.143,0-.285,0a4.415,4.415,0,1,1,7.092,4.07A7.732,7.732,0,0,0,38.1,64.213Z" transform="translate(-23.591 -55.604)" fill="#bdbce1"/>
    <circle id="Ellipse_24" data-name="Ellipse 24" cx="0.597" cy="0.597" r="0.597" transform="translate(17.998 22.868)" fill="#bdbce1"/>
    <path id="Path_51" data-name="Path 51" d="M284.591,2.147a.6.6,0,0,0,1.147-.328l-.4-1.387a.6.6,0,1,0-1.147.328Z" transform="translate(-268.62 0.066)" fill="#bdbce1"/>
    <path id="Path_52" data-name="Path 52" d="M195.219,72.055l1.263.7a.6.6,0,1,0,.579-1.043l-1.263-.7a.6.6,0,1,0-.579,1.043Z" transform="translate(-184.685 -66.64)" fill="#bdbce1"/>
    <path id="Path_53" data-name="Path 53" d="M436.42,204.528l-1.263-.7a.6.6,0,1,0-.579,1.043l1.263.7a.6.6,0,1,0,.579-1.043Z" transform="translate(-409.765 -191.532)" fill="#bdbce1"/>
    <path id="Path_54" data-name="Path 54" d="M447.71,102.654a.6.6,0,0,0-.738-.409l-1.387.4a.6.6,0,1,0,.328,1.147l1.387-.4a.6.6,0,0,0,.41-.738Z" transform="translate(-419.999 -96.058)" fill="#bdbce1"/>
    <path id="Path_55" data-name="Path 55" d="M386.019,15.334a.6.6,0,0,0,.811-.232l.7-1.263a.6.6,0,0,0-1.043-.579l-.7,1.263a.6.6,0,0,0,.232.811Z" transform="translate(-364.103 -12.115)" fill="#bdbce1"/>
    <path id="Path_56" data-name="Path 56" d="M105.6,432.291a.6.6,0,0,0-1.023,0l-1.043,1.737a1.813,1.813,0,1,0,3.108,0Zm.028,2.975a.62.62,0,1,1-1.071-.624l.531-.885.531.885a.608.608,0,0,1,.006.625Z" transform="translate(-98.509 -406.165)" fill="#bdbce1"/>
    <path id="Path_57" data-name="Path 57" d="M227.885,432.291a.6.6,0,0,0-1.023,0l-1.043,1.737a1.813,1.813,0,1,0,3.108,0Zm.028,2.975a.62.62,0,1,1-1.071-.624l.531-.885.531.885a.608.608,0,0,1,.009.625Z" transform="translate(-213.502 -406.165)" fill="#bdbce1"/>
    <path id="Path_58" data-name="Path 58" d="M350.17,432.291a.6.6,0,0,0-1.023,0l-1.043,1.737a1.813,1.813,0,1,0,3.108,0Zm.028,2.975a.62.62,0,1,1-1.071-.624l.531-.885.531.885a.608.608,0,0,1,.011.625Z" transform="translate(-328.493 -406.165)" fill="#bdbce1"/>
  </g>
</svg>
