<svg id="sun" xmlns="http://www.w3.org/2000/svg" width="30.357" height="30.436" viewBox="0 0 30.357 30.436">
  <g id="Group_46" data-name="Group 46" transform="translate(6.603 6.676)">
    <g id="Group_45" data-name="Group 45">
      <path id="Path_59" data-name="Path 59" d="M120.645,112.071a8.581,8.581,0,0,0-8.4,10.323.6.6,0,0,0,1.166-.242,7.385,7.385,0,1,1,1.546,3.207.6.6,0,0,0-.916.761,8.574,8.574,0,1,0,6.6-14.049Z" transform="translate(-112.071 -112.071)" fill="#bdbce1"/>
    </g>
  </g>
  <g id="Group_48" data-name="Group 48" transform="translate(14.582)">
    <g id="Group_47" data-name="Group 47">
      <path id="Path_60" data-name="Path 60" d="M246.6,0a.6.6,0,0,0-.6.6V4.48a.6.6,0,0,0,1.191,0V.6A.6.6,0,0,0,246.6,0Z" transform="translate(-246.005)" fill="#bdbce1"/>
    </g>
  </g>
  <g id="Group_50" data-name="Group 50" transform="translate(14.582 25.429)">
    <g id="Group_49" data-name="Group 49">
      <path id="Path_61" data-name="Path 61" d="M246.6,426.875a.6.6,0,0,0-.6.6v3.88a.6.6,0,0,0,1.191,0v-3.88a.6.6,0,0,0-.591-.6Z" transform="translate(-246.005 -426.875)" fill="#bdbce1"/>
    </g>
  </g>
  <g id="Group_52" data-name="Group 52" transform="translate(25.356 14.655)">
    <g id="Group_51" data-name="Group 51">
      <path id="Path_62" data-name="Path 62" d="M431.35,246h-3.88a.6.6,0,0,0,0,1.191h3.88a.6.6,0,0,0,0-1.191Z" transform="translate(-426.875 -246.005)" fill="#bdbce1"/>
    </g>
  </g>
  <g id="Group_54" data-name="Group 54" transform="translate(-0.073 14.655)">
    <g id="Group_53" data-name="Group 53">
      <path id="Path_63" data-name="Path 63" d="M4.476,246H.6a.6.6,0,0,0,0,1.191H4.48a.6.6,0,0,0,0-1.191Z" transform="translate(0 -246.005)" fill="#bdbce1"/>
    </g>
  </g>
  <g id="Group_56" data-name="Group 56" transform="translate(22.2 4.292)">
    <g id="Group_55" data-name="Group 55">
      <path id="Path_64" data-name="Path 64" d="M377.66,72.228a.6.6,0,0,0-.842,0l-2.744,2.744a.6.6,0,1,0,.842.842l2.744-2.744a.6.6,0,0,0,0-.842Z" transform="translate(-373.9 -72.054)" fill="#bdbce1"/>
    </g>
  </g>
  <g id="Group_58" data-name="Group 58" transform="translate(4.219 22.273)">
    <g id="Group_57" data-name="Group 57">
      <path id="Path_65" data-name="Path 65" d="M75.814,374.074a.6.6,0,0,0-.842,0l-2.744,2.744a.6.6,0,1,0,.842.842l2.744-2.744A.6.6,0,0,0,75.814,374.074Z" transform="translate(-72.054 -373.899)" fill="#bdbce1"/>
    </g>
  </g>
  <g id="Group_60" data-name="Group 60" transform="translate(22.2 22.273)">
    <g id="Group_59" data-name="Group 59">
      <path id="Path_66" data-name="Path 66" d="M377.66,376.817l-2.744-2.744a.6.6,0,1,0-.842.842l2.744,2.744a.6.6,0,0,0,.842-.842Z" transform="translate(-373.9 -373.899)" fill="#bdbce1"/>
    </g>
  </g>
  <g id="Group_62" data-name="Group 62" transform="translate(4.219 4.292)">
    <g id="Group_61" data-name="Group 61">
      <path id="Path_67" data-name="Path 67" d="M75.814,74.971,73.07,72.228a.6.6,0,1,0-.842.842l2.744,2.744a.6.6,0,0,0,.842-.842Z" transform="translate(-72.054 -72.054)" fill="#bdbce1"/>
    </g>
  </g>
  <g id="Group_64" data-name="Group 64" transform="translate(7.435 18.205)">
    <g id="Group_63" data-name="Group 63">
      <path id="Path_68" data-name="Path 68" d="M127.06,305.783a.6.6,0,1,0,.174.421.6.6,0,0,0-.174-.421Z" transform="translate(-126.044 -305.608)" fill="#bdbce1"/>
    </g>
  </g>
  <g id="Group_66" data-name="Group 66" transform="translate(18.449 11.138)">
    <g id="Group_65" data-name="Group 65">
      <path id="Path_69" data-name="Path 69" d="M313.469,190.68a5.836,5.836,0,0,0-1.5-3.512.6.6,0,0,0-.881.8,4.641,4.641,0,0,1,1.193,2.793.6.6,0,0,0,.593.555h.041a.6.6,0,0,0,.554-.636Z" transform="translate(-310.932 -186.973)" fill="#bdbce1"/>
    </g>
  </g>
  <g id="Group_68" data-name="Group 68" transform="translate(19.809 16.552)">
    <g id="Group_67" data-name="Group 67">
      <path id="Path_70" data-name="Path 70" d="M334.767,278.036a.6.6,0,1,0,.175.421A.6.6,0,0,0,334.767,278.036Z" transform="translate(-333.751 -277.862)" fill="#bdbce1"/>
    </g>
  </g>
</svg>
