<svg id="water-drop" xmlns="http://www.w3.org/2000/svg" width="15.1" height="19.256" viewBox="0 0 15.1 19.256">
  <g id="Group_9" data-name="Group 9" transform="translate(0 0)">
    <path id="Path_22" data-name="Path 22" d="M100.751,249.517a4.421,4.421,0,0,1-2.244-6.843.385.385,0,0,0,.034-.056.377.377,0,0,0-.645-.387,5.175,5.175,0,0,0,2.631,8,.377.377,0,1,0,.224-.72Z" transform="translate(-95.316 -232.944)" fill="#836eff"/>
    <path id="Path_23" data-name="Path 23" d="M70.212,8.812a3.321,3.321,0,0,0-.647-1.978L67.178,3.29a.377.377,0,0,0-.625,0L65.547,4.783,62.436.166a.377.377,0,0,0-.625,0L56.473,8.091a7.013,7.013,0,1,0,12.6,3.231A3.337,3.337,0,0,0,70.212,8.812ZM66.865,4.176l2.073,3.079.013.019a2.593,2.593,0,1,1-4.174,0l.013-.019L65.859,5.67l.006-.009Zm1.514,8.068a6.259,6.259,0,1,1-11.3-3.714l.013-.019,5.028-7.459,2.968,4.406-.926,1.378a3.346,3.346,0,0,0,4.2,4.969q.015.218.016.443Z" transform="translate(-55.112 0)" fill="#836eff"/>
    <path id="Path_24" data-name="Path 24" d="M312.314,204.337a1.282,1.282,0,0,1,.11-.524.377.377,0,0,0-.689-.306,2.048,2.048,0,0,0,.733,2.532.377.377,0,0,0,.419-.627,1.291,1.291,0,0,1-.574-1.075Z" transform="translate(-301.891 -195.617)" fill="#836eff"/>
    <path id="Path_25" data-name="Path 25" d="M217.858,447.444a.38.38,0,1,0-.06.381A.377.377,0,0,0,217.858,447.444Z" transform="translate(-211.025 -430.349)" fill="#836eff"/>
    <path id="Path_26" data-name="Path 26" d="M357.329,267.851a.379.379,0,1,0-.166-.313.377.377,0,0,0,.166.313Z" transform="translate(-345.774 -257.085)" fill="#836eff"/>
  </g>
</svg>
