<svg xmlns="http://www.w3.org/2000/svg" width="19.781" height="16.465" viewBox="0 0 19.781 16.465">
  <g id="wind" transform="translate(0)">
    <path id="Path_17" data-name="Path 17" d="M119.463,42.294a4.135,4.135,0,0,0-2.579.908.58.58,0,1,0,.725.9,2.964,2.964,0,1,1,1.856,5.276H108.6a.58.58,0,0,0,0,1.156h10.865a4.12,4.12,0,1,0,0-8.24Z" transform="translate(-103.805 -42.294)" fill="#836eff"/>
    <path id="Path_18" data-name="Path 18" d="M79.859,167.448h6.173a.58.58,0,1,0,0-1.156H79.859a.58.58,0,0,0,0,1.156Z" transform="translate(-76.174 -161.515)" fill="#836eff"/>
    <path id="Path_19" data-name="Path 19" d="M9.663,286.294H.6a.58.58,0,0,0,0,1.156H9.663a2.377,2.377,0,1,1-1.488,4.231.58.58,0,1,0-.725.9,3.533,3.533,0,1,0,2.212-6.288Z" transform="translate(0.034 -276.895)" fill="#836eff"/>
    <path id="Path_20" data-name="Path 20" d="M.56,167.448h.777a.58.58,0,1,0,0-1.156H.56a.58.58,0,1,0,0,1.156Z" transform="translate(0.075 -161.515)" fill="#836eff"/>
    <path id="Path_21" data-name="Path 21" d="M80.643,346.58a.58.58,0,0,0-.58-.58H76.6a.58.58,0,0,0,0,1.156h3.467A.58.58,0,0,0,80.643,346.58Z" transform="translate(-73.038 -334.301)" fill="#836eff"/>
  </g>
</svg>
