<svg xmlns="http://www.w3.org/2000/svg" xmlns:xlink="http://www.w3.org/1999/xlink" width="44" height="43.999" viewBox="0 0 44 43.999">
  <defs>
    <linearGradient id="linear-gradient" x1="0.751" y1="0.099" x2="0.069" y2="0.927" gradientUnits="objectBoundingBox">
      <stop offset="0" stop-color="#467bff"/>
      <stop offset="1" stop-color="#c661ff"/>
    </linearGradient>
  </defs>
  <g id="Grupo_82" data-name="Grupo 82" transform="translate(-114 -717)">
    <g id="XMLID_106_" transform="translate(114 717)">
      <path id="XMLID_651_" d="M41.249,38.5H33.992V18.205A13.64,13.64,0,0,0,39.775,19.5a13.851,13.851,0,0,0,3.586-.475.859.859,0,0,0,.207-1.574l-9.24-5.331V9.988A13.679,13.679,0,0,0,30.3.251a.859.859,0,0,0-1.467.607V11.52l-1.851,1.063a13.679,13.679,0,0,0-6.415,8.36.859.859,0,0,0,1.26.967l7-4.041V38.5H25.866a.859.859,0,0,0,0,1.719H41.249a1.031,1.031,0,1,1,0,2.062H2.75a1.031,1.031,0,0,1,0-2.062H18.132a.859.859,0,1,0,0-1.719H13.439V26.326a13.64,13.64,0,0,0,5.783,1.291,13.851,13.851,0,0,0,3.586-.475.859.859,0,0,0,.207-1.574L13.787,20.24V18.11A13.679,13.679,0,0,0,9.753,8.373a.859.859,0,0,0-1.467.607V19.641L6.443,20.7a13.679,13.679,0,0,0-6.415,8.36.859.859,0,0,0,1.26.967l7-4.041V38.5H2.75a2.75,2.75,0,0,0,0,5.5h38.5a2.75,2.75,0,1,0,0-5.5ZM32.618,13.405a1.2,1.2,0,1,1-1.2-1.2,1.2,1.2,0,0,1,1.2,1.2Zm1.156,2.751-.656-.378a2.933,2.933,0,0,0,1.145-1.72l6.384,3.689a11.963,11.963,0,0,1-6.876-1.588ZM32.618,9.988v.757a2.916,2.916,0,0,0-2.062-.131V3.24a11.963,11.963,0,0,1,2.062,6.748ZM27.853,14.08l.654-.378a2.916,2.916,0,0,0,.921,1.851l-6.387,3.689a11.963,11.963,0,0,1,4.812-5.161Zm2.7,24.419V16.878l.516-.293,1.2.7V38.5ZM12.069,21.527a1.2,1.2,0,1,1-1.2-1.2A1.2,1.2,0,0,1,12.069,21.527Zm1.156,2.751-.657-.373a2.933,2.933,0,0,0,1.145-1.72l6.38,3.681a11.965,11.965,0,0,1-6.876-1.588ZM12.069,18.11v.757a2.916,2.916,0,0,0-2.062-.131V11.361a11.963,11.963,0,0,1,2.062,6.749ZM7.3,22.195l.654-.378a2.916,2.916,0,0,0,.921,1.851L2.494,27.356A11.965,11.965,0,0,1,7.3,22.195ZM10.007,25l.516-.293,1.2.7V38.5h-1.72Z" transform="translate(0.001 0)" fill="url(#linear-gradient)"/>
      <path id="XMLID_694_" d="M246.86,448a.859.859,0,1,0,.607.252.86.86,0,0,0-.607-.252Z" transform="translate(-224.859 -409.501)" fill="url(#linear-gradient)"/>
    </g>
  </g>
</svg>
